# xmcd CD database file generated by freedbAccess_ocx
#
# Track frame offsets:
#       150
#       14857
#       30260
#       46800
#       64810
#       80095
#       97250
#       113852
#       128557
#       146732
#       166570
#       188959
#       204385
#       221587
#       238322
#
# Disc length: 3426 seconds
#
# Revision: 0
# Processed by: cddbd v1.4PL0 Copyright (c) Steve Scherf et al.
# Submitted via: CDnGo 2.00
#
DISCID=d70d600f
DTITLE=Jean Carlos - Nominado
DYEAR=2001
DGENRE=Salsa
TTITLE0=Gracias
TTITLE1=Nominado
TTITLE2=Pero me acuerdo de ti
TTITLE3=Yerva mala
TTITLE4=Amaya
TTITLE5=Perdoname
TTITLE6=Quiereme
TTITLE7=Dame Dame
TTITLE8=Una carta
TTITLE9=Par de anillos
TTITLE10=La loquera
TTITLE11=El Chicano (Carlitos)
TTITLE12=Arroz con leche
TTITLE13=Esto esta duro
TTITLE14=Tu recuerdo
EXTD=
EXTT0=
EXTT1=
EXTT2=
EXTT3=
EXTT4=
EXTT5=
EXTT6=
EXTT7=
EXTT8=
EXTT9=
EXTT10=
EXTT11=
EXTT12=
EXTT13=
EXTT14=
PLAYORDER=
